<svg width="453" height="294" viewBox="0 0 453 294" fill="none" xmlns="http://www.w3.org/2000/svg">
<path d="M175.024 126.154C175.774 125.904 176.774 125.498 178.024 124.935C179.274 124.341 180.602 123.451 182.008 122.263C183.414 121.044 184.82 119.435 186.227 117.435C187.633 115.435 188.883 112.873 189.977 109.748C190.289 108.904 190.727 107.669 191.289 106.044C191.852 104.419 192.492 102.56 193.211 100.466C193.93 98.3726 194.711 96.1069 195.555 93.6694C196.399 91.2319 197.227 88.7788 198.039 86.3101C198.883 83.8413 199.695 81.4351 200.477 79.0913C201.258 76.7163 201.945 74.5601 202.539 72.6226C203.164 70.6538 203.68 68.9819 204.086 67.6069C204.492 66.2007 204.727 65.2163 204.789 64.6538C204.789 64.4038 204.695 64.0913 204.508 63.7163C204.32 63.3413 204.149 63.1069 203.992 63.0132C202.461 63.1069 200.945 63.2476 199.445 63.4351C197.977 63.6226 196.617 63.9351 195.367 64.3726C194.961 64.5288 194.524 64.7944 194.055 65.1694C193.586 65.5132 193.149 65.9507 192.742 66.4819C192.336 67.0132 191.992 67.6069 191.711 68.2632C191.461 68.8882 191.336 69.5288 191.336 70.1851C191.336 70.5913 191.367 71.1069 191.43 71.7319C191.492 72.3257 191.617 72.9351 191.805 73.5601L191.242 74.1226C189.649 72.9663 188.383 71.7632 187.445 70.5132C186.508 69.2319 186.039 68.0444 186.039 66.9507C186.039 66.3257 186.242 65.6382 186.649 64.8882C187.086 64.1382 187.617 63.4507 188.242 62.8257C188.867 62.1694 189.539 61.6226 190.258 61.1851C190.977 60.7476 191.617 60.5288 192.18 60.5288C194.117 60.5288 196.149 60.6069 198.274 60.7632C200.43 60.9194 202.82 60.9976 205.445 60.9976C206.008 60.9976 206.649 60.9976 207.367 60.9976C208.117 60.9663 208.867 60.9351 209.617 60.9038C210.399 60.8413 211.149 60.7944 211.867 60.7632C212.586 60.7319 213.227 60.6851 213.789 60.6226L214.07 61.9351C213.664 62.9976 213.086 64.6226 212.336 66.8101C211.617 68.9976 210.789 71.5288 209.852 74.4038C208.914 77.2476 207.899 80.3101 206.805 83.5913C205.742 86.8726 204.664 90.1538 203.57 93.4351C202.508 96.7163 201.477 99.8882 200.477 102.951C199.477 106.013 198.57 108.732 197.758 111.107C197.008 113.388 195.977 115.373 194.664 117.06C193.383 118.748 191.977 120.185 190.445 121.373C188.945 122.56 187.383 123.529 185.758 124.279C184.164 125.029 182.664 125.623 181.258 126.06C179.883 126.529 178.664 126.857 177.602 127.044C176.539 127.232 175.805 127.357 175.399 127.419L175.024 126.154ZM220.399 67.2319C220.399 66.5444 220.211 66.0757 219.836 65.8257C219.492 65.5444 219.055 65.4194 218.524 65.4507C217.992 65.4819 217.414 65.6069 216.789 65.8257C216.164 66.0132 215.586 66.2319 215.055 66.4819L214.445 65.2163C217.633 63.6538 220.227 62.5601 222.227 61.9351C224.258 61.3101 225.664 60.9976 226.445 60.9976C226.664 60.9976 226.914 61.0913 227.195 61.2788C227.508 61.4351 227.789 61.6694 228.039 61.9819C228.289 62.2944 228.508 62.6538 228.695 63.0601C228.883 63.4351 228.977 63.8257 228.977 64.2319C228.977 64.4819 228.617 65.5288 227.899 67.3726C227.18 69.1851 226.32 71.5757 225.32 74.5444C224.508 77.0757 223.727 79.4663 222.977 81.7163C222.227 83.9351 221.508 86.0757 220.82 88.1382C220.133 90.1694 219.461 92.1382 218.805 94.0444C218.149 95.9194 217.492 97.7944 216.836 99.6694C217.805 98.4194 218.82 97.1538 219.883 95.8726C220.945 94.5601 221.961 93.3882 222.93 92.3569C223.899 91.3257 224.789 90.4819 225.602 89.8257C226.445 89.1694 227.149 88.8413 227.711 88.8413C227.93 88.8413 228.305 88.9507 228.836 89.1694C229.399 89.3569 229.977 89.6694 230.57 90.1069C231.164 90.5132 231.68 91.0444 232.117 91.7007C232.586 92.3257 232.836 93.0913 232.867 93.9976C232.867 94.3101 232.649 95.0288 232.211 96.1538C231.774 97.2788 231.227 98.6226 230.57 100.185C229.945 101.748 229.258 103.451 228.508 105.294C227.758 107.138 227.055 108.951 226.399 110.732C225.774 112.513 225.242 114.169 224.805 115.701C224.367 117.232 224.149 118.482 224.149 119.451C224.149 119.826 224.18 120.107 224.242 120.294C224.336 120.451 224.524 120.529 224.805 120.529C225.149 120.498 225.664 120.326 226.352 120.013C227.039 119.669 227.836 119.169 228.742 118.513C229.649 117.857 230.617 117.06 231.649 116.123C232.711 115.154 233.758 114.029 234.789 112.748L235.867 113.685C234.555 115.341 233.07 116.919 231.414 118.419C229.789 119.888 228.18 121.185 226.586 122.31C224.992 123.435 223.492 124.326 222.086 124.982C220.68 125.638 219.539 125.966 218.664 125.966C218.508 125.966 218.305 125.904 218.055 125.779C217.805 125.654 217.555 125.451 217.305 125.169C217.055 124.888 216.836 124.498 216.649 123.998C216.461 123.498 216.367 122.873 216.367 122.123C216.367 121.748 216.414 121.279 216.508 120.716C216.602 120.123 216.711 119.529 216.836 118.935C216.961 118.31 217.086 117.748 217.211 117.248C217.367 116.716 217.477 116.326 217.539 116.076C217.82 114.982 218.211 113.763 218.711 112.419C219.242 111.044 219.805 109.623 220.399 108.154C220.992 106.685 221.602 105.232 222.227 103.794C222.852 102.326 223.414 100.966 223.914 99.7163C224.414 98.4351 224.82 97.3257 225.133 96.3882C225.445 95.4194 225.602 94.6851 225.602 94.1851C225.602 93.7476 225.477 93.5288 225.227 93.5288C225.008 93.5288 224.68 93.7163 224.242 94.0913C223.805 94.4351 223.289 94.9038 222.695 95.4976C222.133 96.0913 221.524 96.7632 220.867 97.5132C220.211 98.2319 219.555 98.9819 218.899 99.7632C218.242 100.513 217.617 101.248 217.024 101.966C216.461 102.654 215.961 103.263 215.524 103.794C214.43 107.013 213.305 110.357 212.149 113.826C211.024 117.263 209.836 121.091 208.586 125.31C208.242 125.373 207.867 125.419 207.461 125.451C206.742 125.544 205.805 125.591 204.649 125.591C204.117 125.591 203.555 125.56 202.961 125.498C202.367 125.466 201.789 125.404 201.227 125.31L200.899 124.841C201.055 124.529 201.461 123.513 202.117 121.794C202.774 120.044 203.586 117.841 204.555 115.185C205.492 112.529 206.539 109.544 207.695 106.232C208.82 102.919 209.977 99.5444 211.164 96.1069C212.352 92.6694 213.492 89.2944 214.586 85.9819C215.711 82.6694 216.695 79.6851 217.539 77.0288C218.414 74.3413 219.102 72.1226 219.602 70.3726C220.133 68.6226 220.399 67.5757 220.399 67.2319ZM238.164 125.966C237.477 125.966 236.789 125.748 236.102 125.31C235.414 124.841 234.789 124.263 234.227 123.576C233.664 122.857 233.211 122.076 232.867 121.232C232.492 120.388 232.305 119.576 232.305 118.794C232.305 117.857 232.43 116.794 232.68 115.607C232.899 114.419 233.195 113.185 233.57 111.904C233.914 110.623 234.305 109.357 234.742 108.107C235.18 106.857 235.602 105.716 236.008 104.685C236.383 103.623 236.727 102.716 237.039 101.966C237.32 101.216 237.524 100.716 237.649 100.466C238.274 98.9663 239.242 97.5132 240.555 96.1069C241.899 94.7007 243.352 93.4507 244.914 92.3569C246.508 91.2632 248.102 90.3882 249.695 89.7319C251.32 89.0757 252.742 88.7476 253.961 88.7476C254.961 88.7476 255.774 89.2944 256.399 90.3882C257.024 91.4819 257.336 92.8569 257.336 94.5132C257.336 95.3569 257.133 96.1851 256.727 96.9976C256.352 97.8101 255.852 98.5757 255.227 99.2944C254.633 100.013 253.977 100.685 253.258 101.31C252.57 101.935 251.914 102.482 251.289 102.951L241.492 110.451C240.93 112.576 240.461 114.466 240.086 116.123C239.742 117.748 239.57 118.857 239.57 119.451C239.57 120.357 239.695 121.044 239.945 121.513C240.195 121.982 240.711 122.216 241.492 122.216C243.149 122.216 244.867 121.404 246.649 119.779C248.43 118.123 250.164 115.482 251.852 111.857L253.211 112.748C252.367 114.716 251.383 116.513 250.258 118.138C249.164 119.763 247.977 121.154 246.695 122.31C245.414 123.466 244.039 124.373 242.57 125.029C241.133 125.654 239.664 125.966 238.164 125.966ZM250.539 91.4194C249.914 91.4194 249.242 91.9038 248.524 92.8726C247.805 93.8413 247.086 95.1069 246.367 96.6694C245.649 98.2007 244.945 99.9507 244.258 101.919C243.57 103.857 242.945 105.794 242.383 107.732L250.352 101.404C250.727 100.06 251.07 98.7476 251.383 97.4663C251.695 96.1538 251.852 95.1694 251.852 94.5132C251.852 94.1694 251.82 93.8257 251.758 93.4819C251.727 93.1069 251.664 92.7632 251.57 92.4507C251.477 92.1382 251.336 91.8882 251.149 91.7007C250.992 91.5132 250.789 91.4194 250.539 91.4194ZM295.774 77.8726C295.961 77.6538 296.164 77.3101 296.383 76.8413C296.602 76.3413 296.805 75.7788 296.992 75.1538C297.18 74.4976 297.32 73.7944 297.414 73.0444C297.539 72.2632 297.602 71.4819 297.602 70.7007C297.602 69.1382 297.289 67.9976 296.664 67.2788C296.07 66.5288 295.399 66.1538 294.649 66.1538C294.242 66.1538 293.82 66.2788 293.383 66.5288C292.945 66.7788 292.555 67.1694 292.211 67.7007C291.867 68.2007 291.57 68.8413 291.32 69.6226C291.102 70.4038 290.992 71.3413 290.992 72.4351C290.992 72.9976 291.117 73.9976 291.367 75.4351C291.649 76.8726 291.992 78.5601 292.399 80.4976C292.805 82.4351 293.227 84.5444 293.664 86.8257C294.133 89.0757 294.57 91.3257 294.977 93.5757C295.383 95.8257 295.711 97.9819 295.961 100.044C296.242 102.076 296.383 103.841 296.383 105.341C296.383 106.841 296.117 108.419 295.586 110.076C295.086 111.701 294.43 113.31 293.617 114.904C292.805 116.466 291.914 117.951 290.945 119.357C289.977 120.763 289.039 122.013 288.133 123.107C287.227 124.169 286.414 125.013 285.695 125.638C284.977 126.263 284.461 126.576 284.149 126.576C283.617 126.576 283.117 126.544 282.649 126.482C282.211 126.419 281.727 126.279 281.195 126.06C280.195 125.498 279.164 124.779 278.102 123.904C277.07 123.029 276.086 122.076 275.149 121.044C274.18 120.013 273.305 118.966 272.524 117.904C271.711 116.81 271.055 115.763 270.555 114.763C271.274 113.763 272.024 112.794 272.805 111.857C273.461 111.044 274.195 110.201 275.008 109.326C275.789 108.451 276.57 107.669 277.352 106.982H277.445C277.914 108.201 278.508 109.544 279.227 111.013C279.945 112.482 280.711 113.857 281.524 115.138C282.367 116.419 283.227 117.498 284.102 118.373C284.977 119.216 285.805 119.638 286.586 119.638C286.742 119.638 286.977 119.591 287.289 119.498C287.633 119.404 287.961 119.201 288.274 118.888C288.586 118.544 288.852 118.044 289.07 117.388C289.32 116.701 289.445 115.763 289.445 114.576C289.445 113.763 289.289 112.404 288.977 110.498C288.695 108.591 288.32 106.419 287.852 103.982C287.383 101.544 286.883 98.9819 286.352 96.2944C285.852 93.6069 285.367 91.0757 284.899 88.7007C284.43 86.3257 284.039 84.2476 283.727 82.4663C283.445 80.6538 283.305 79.4194 283.305 78.7632C283.305 77.3882 283.586 76.0601 284.149 74.7788C284.742 73.4663 285.43 72.2632 286.211 71.1694C287.024 70.0444 287.852 69.0601 288.695 68.2163C289.539 67.3726 290.211 66.7163 290.711 66.2476C291.461 65.6226 292.289 64.9507 293.195 64.2319C294.133 63.5132 295.055 62.8413 295.961 62.2163C296.899 61.5913 297.774 61.0757 298.586 60.6694C299.399 60.2319 300.07 60.0132 300.602 60.0132C301.133 60.0132 301.617 60.1382 302.055 60.3882C302.492 60.6069 302.867 61.0132 303.18 61.6069C303.524 62.1694 303.774 62.9663 303.93 63.9976C304.117 64.9976 304.211 66.2944 304.211 67.8882C304.211 68.6069 304.086 69.3101 303.836 69.9976C303.617 70.6538 303.32 71.3101 302.945 71.9663C302.57 72.5913 302.149 73.2007 301.68 73.7944C301.211 74.3569 300.727 74.8882 300.227 75.3882C299.039 76.5757 297.711 77.6694 296.242 78.6694L295.774 77.8726ZM312.789 116.263C312.789 116.232 312.805 116.169 312.836 116.076C312.867 116.013 312.914 115.857 312.977 115.607C312.008 116.857 311.024 118.107 310.024 119.357C309.024 120.607 308.055 121.732 307.117 122.732C306.18 123.701 305.305 124.498 304.492 125.123C303.711 125.748 303.055 126.06 302.524 126.06C302.305 126.06 301.914 125.966 301.352 125.779C300.789 125.591 300.227 125.294 299.664 124.888C299.07 124.451 298.539 123.904 298.07 123.248C297.602 122.591 297.352 121.81 297.32 120.904C297.32 120.591 297.524 119.826 297.93 118.607C298.305 117.388 298.805 115.919 299.43 114.201C300.024 112.451 300.664 110.576 301.352 108.576C302.039 106.544 302.68 104.576 303.274 102.669C303.899 100.732 304.399 98.9507 304.774 97.3257C305.18 95.7007 305.383 94.4351 305.383 93.5288C305.383 93.2788 305.352 93.0601 305.289 92.8726C305.227 92.6851 305.164 92.5288 305.102 92.4038C305.008 92.2788 304.914 92.1694 304.82 92.0757V91.4194C305.508 90.9819 306.336 90.6226 307.305 90.3413C308.274 90.0288 309.211 89.7944 310.117 89.6382C311.149 89.4507 312.227 89.3101 313.352 89.2163L313.539 89.4976C313.32 91.1538 312.945 92.9976 312.414 95.0288C311.883 97.0288 311.289 99.0913 310.633 101.216C309.977 103.31 309.289 105.388 308.57 107.451C307.883 109.513 307.242 111.419 306.649 113.169C306.055 114.919 305.57 116.466 305.195 117.81C304.82 119.123 304.633 120.091 304.633 120.716C304.633 121.154 304.758 121.373 305.008 121.373C305.227 121.373 305.555 121.201 305.992 120.857C306.43 120.482 306.93 120.013 307.492 119.451C308.086 118.857 308.711 118.201 309.367 117.482C310.024 116.763 310.68 116.029 311.336 115.279C311.992 114.498 312.602 113.763 313.164 113.076C313.758 112.357 314.274 111.732 314.711 111.201C315.211 109.794 315.758 108.232 316.352 106.513C316.945 104.794 317.508 103.123 318.039 101.498C318.602 99.8726 319.07 98.3726 319.445 96.9976C319.852 95.6226 320.102 94.5601 320.195 93.8101C320.258 93.4663 320.258 93.2007 320.195 93.0132C320.133 92.7944 320.055 92.6069 319.961 92.4507C319.836 92.2944 319.711 92.1694 319.586 92.0757V91.4194C320.305 90.9819 321.149 90.6226 322.117 90.3413C323.086 90.0288 324.024 89.7944 324.93 89.6382C325.961 89.4507 327.039 89.3101 328.164 89.2163L328.352 89.4976C328.008 91.1538 327.539 92.9507 326.945 94.8882C326.383 96.8257 325.758 98.8101 325.07 100.841C324.414 102.841 323.742 104.826 323.055 106.794C322.399 108.732 321.789 110.544 321.227 112.232C320.695 113.919 320.258 115.419 319.914 116.732C319.57 118.013 319.399 118.982 319.399 119.638C319.399 120.044 319.43 120.326 319.492 120.482C319.586 120.638 319.789 120.716 320.102 120.716C320.414 120.685 320.914 120.513 321.602 120.201C322.32 119.857 323.133 119.357 324.039 118.701C324.945 118.044 325.914 117.248 326.945 116.31C328.008 115.341 329.055 114.216 330.086 112.935L331.117 113.873C329.805 115.529 328.336 117.107 326.711 118.607C325.086 120.076 323.461 121.373 321.836 122.498C320.242 123.623 318.742 124.513 317.336 125.169C315.93 125.826 314.805 126.154 313.961 126.154C313.805 126.154 313.602 126.091 313.352 125.966C313.102 125.841 312.852 125.638 312.602 125.357C312.352 125.076 312.133 124.701 311.945 124.232C311.758 123.732 311.664 123.107 311.664 122.357C311.664 121.982 311.711 121.498 311.805 120.904C311.899 120.31 312.008 119.716 312.133 119.123C312.258 118.498 312.383 117.935 312.508 117.435C312.633 116.904 312.727 116.513 312.789 116.263ZM347.899 113.873C347.399 115.529 346.883 117.294 346.352 119.169C345.852 121.013 345.352 122.873 344.852 124.748C344.352 126.623 343.867 128.451 343.399 130.232C342.93 132.044 342.477 133.701 342.039 135.201C341.727 136.294 341.133 137.326 340.258 138.294C339.414 139.263 338.414 140.138 337.258 140.919C336.133 141.732 334.93 142.451 333.649 143.076C332.367 143.732 331.18 144.263 330.086 144.669C328.992 145.107 328.055 145.435 327.274 145.654C326.492 145.904 326.008 146.029 325.82 146.029C325.539 146.029 325.164 145.998 324.695 145.935C324.195 145.873 323.805 145.748 323.524 145.56C323.18 145.373 322.805 145.013 322.399 144.482C321.961 143.982 321.555 143.388 321.18 142.701C320.774 142.013 320.414 141.279 320.102 140.498C319.758 139.748 319.524 139.044 319.399 138.388L325.07 133.654C325.664 135.154 326.305 136.482 326.992 137.638C327.274 138.138 327.586 138.623 327.93 139.091C328.274 139.591 328.633 140.029 329.008 140.404C329.383 140.779 329.774 141.076 330.18 141.294C330.586 141.513 330.992 141.623 331.399 141.623C331.711 141.623 331.992 141.498 332.242 141.248C332.524 140.998 332.774 140.669 332.992 140.263C333.242 139.888 333.477 139.435 333.695 138.904C333.914 138.404 334.133 137.873 334.352 137.31C334.602 136.591 334.883 135.716 335.195 134.685C335.539 133.685 335.883 132.591 336.227 131.404C336.602 130.248 336.961 129.044 337.305 127.794C337.68 126.544 338.039 125.31 338.383 124.091C338.727 122.873 339.039 121.716 339.32 120.623C339.633 119.498 339.899 118.498 340.117 117.623C339.024 118.966 337.883 120.169 336.695 121.232C335.508 122.263 334.383 123.138 333.32 123.857C332.258 124.544 331.32 125.06 330.508 125.404C329.664 125.779 329.055 125.966 328.68 125.966C328.43 125.966 328.227 125.873 328.07 125.685C327.883 125.498 327.727 125.248 327.602 124.935C327.445 124.623 327.336 124.294 327.274 123.951C327.18 123.607 327.117 123.263 327.086 122.919C326.992 121.826 327.039 120.638 327.227 119.357C327.383 118.044 327.617 116.716 327.93 115.373C328.242 114.029 328.602 112.716 329.008 111.435C329.383 110.123 329.758 108.935 330.133 107.873C330.508 106.779 330.836 105.857 331.117 105.107C331.399 104.357 331.586 103.857 331.68 103.607C331.805 103.232 332.008 102.794 332.289 102.294C332.602 101.763 332.945 101.248 333.32 100.748C333.695 100.216 334.07 99.7163 334.445 99.2476C334.852 98.7476 335.242 98.3101 335.617 97.9351C336.305 97.2788 337.211 96.5757 338.336 95.8257C339.492 95.0757 340.742 94.3413 342.086 93.6226C343.43 92.9038 344.805 92.2007 346.211 91.5132C347.649 90.8257 349.008 90.2319 350.289 89.7319C351.57 89.2319 352.711 88.8257 353.711 88.5132C354.711 88.2007 355.461 88.0444 355.961 88.0444C356.399 88.0444 356.774 88.0601 357.086 88.0913C357.43 88.1226 357.695 88.1694 357.883 88.2319L357.977 88.4663C357.508 89.0601 356.945 90.0444 356.289 91.4194C355.664 92.7944 355.008 94.3569 354.32 96.1069C353.633 97.8257 352.93 99.6382 352.211 101.544C351.524 103.451 350.883 105.248 350.289 106.935C349.695 108.623 349.18 110.091 348.742 111.341C348.305 112.591 348.024 113.435 347.899 113.873ZM334.961 119.169C335.211 119.169 335.57 119.029 336.039 118.748C336.539 118.466 337.07 118.107 337.633 117.669C338.195 117.232 338.774 116.732 339.367 116.169C339.961 115.576 340.508 114.982 341.008 114.388C341.32 113.294 341.664 112.091 342.039 110.779C342.445 109.466 342.867 108.123 343.305 106.748C343.742 105.373 344.195 103.998 344.664 102.623C345.133 101.248 345.586 99.9507 346.024 98.7319C346.461 97.4819 346.883 96.3569 347.289 95.3569C347.695 94.3257 348.055 93.4663 348.367 92.7788C348.117 92.8413 347.789 92.9351 347.383 93.0601C347.008 93.1538 346.57 93.2944 346.07 93.4819C345.602 93.6382 345.102 93.8569 344.57 94.1382C344.039 94.3882 343.524 94.7007 343.024 95.0757C342.18 95.7319 341.383 96.7163 340.633 98.0288C339.883 99.3413 339.195 100.826 338.57 102.482C337.945 104.107 337.367 105.794 336.836 107.544C336.336 109.294 335.899 110.919 335.524 112.419C335.18 113.919 334.914 115.201 334.727 116.263C334.539 117.326 334.445 117.966 334.445 118.185C334.445 118.435 334.461 118.669 334.492 118.888C334.555 119.076 334.711 119.169 334.961 119.169ZM383.664 112.935C382.289 114.591 380.805 116.201 379.211 117.763C377.649 119.294 376.102 120.654 374.57 121.841C373.07 123.029 371.664 123.982 370.352 124.701C369.039 125.419 367.945 125.779 367.07 125.779C366.883 125.779 366.649 125.685 366.367 125.498C366.086 125.341 365.899 125.185 365.805 125.029C365.461 124.404 365.211 123.623 365.055 122.685C364.93 121.716 364.867 120.826 364.867 120.013C364.867 119.763 364.899 119.419 364.961 118.982C365.055 118.513 365.149 118.029 365.242 117.529C364.211 118.623 363.133 119.685 362.008 120.716C360.914 121.716 359.852 122.607 358.82 123.388C357.82 124.169 356.93 124.794 356.149 125.263C355.336 125.732 354.742 125.966 354.367 125.966C354.117 125.966 353.914 125.873 353.758 125.685C353.57 125.498 353.414 125.248 353.289 124.935C353.133 124.623 353.024 124.294 352.961 123.951C352.867 123.607 352.805 123.263 352.774 122.919C352.68 121.826 352.727 120.638 352.914 119.357C353.07 118.044 353.305 116.716 353.617 115.373C353.93 114.029 354.289 112.716 354.695 111.435C355.07 110.123 355.445 108.935 355.82 107.873C356.195 106.779 356.524 105.857 356.805 105.107C357.086 104.357 357.274 103.857 357.367 103.607C357.492 103.232 357.695 102.794 357.977 102.294C358.289 101.763 358.633 101.248 359.008 100.748C359.383 100.216 359.758 99.7163 360.133 99.2476C360.539 98.7476 360.93 98.3101 361.305 97.9351C361.992 97.2788 362.883 96.5757 363.977 95.8257C365.07 95.0757 366.258 94.3413 367.539 93.6226C368.852 92.9038 370.195 92.2007 371.57 91.5132C372.945 90.8257 374.242 90.2319 375.461 89.7319C376.711 89.2319 377.82 88.8257 378.789 88.5132C379.758 88.2007 380.492 88.0444 380.992 88.0444C381.43 88.0444 381.805 88.0601 382.117 88.0913C382.461 88.1226 382.727 88.1694 382.914 88.2319L383.008 88.4663C382.664 88.9038 382.242 89.6538 381.742 90.7163C381.242 91.7788 380.695 93.0132 380.102 94.4194C379.508 95.8257 378.899 97.3726 378.274 99.0601C377.649 100.748 377.024 102.451 376.399 104.169C375.805 105.888 375.242 107.576 374.711 109.232C374.18 110.857 373.695 112.341 373.258 113.685C372.852 115.029 372.524 116.169 372.274 117.107C372.055 118.013 371.945 118.607 371.945 118.888C371.945 119.451 372.18 119.732 372.649 119.732C372.961 119.701 373.461 119.529 374.149 119.216C374.836 118.873 375.633 118.373 376.539 117.716C377.445 117.06 378.414 116.263 379.445 115.326C380.508 114.357 381.57 113.232 382.633 111.951L383.664 112.935ZM360.649 119.169C360.899 119.169 361.227 119.029 361.633 118.748C362.039 118.466 362.477 118.107 362.945 117.669C363.414 117.232 363.914 116.732 364.445 116.169C364.977 115.576 365.492 114.982 365.992 114.388C366.305 113.294 366.649 112.091 367.024 110.779C367.43 109.466 367.852 108.123 368.289 106.748C368.727 105.373 369.18 103.998 369.649 102.623C370.117 101.248 370.57 99.9507 371.008 98.7319C371.477 97.4819 371.914 96.3569 372.32 95.3569C372.727 94.3257 373.086 93.4663 373.399 92.7788C372.899 92.9351 372.242 93.1694 371.43 93.4819C370.617 93.7632 369.711 94.2944 368.711 95.0757C367.867 95.7319 367.07 96.7163 366.32 98.0288C365.57 99.3413 364.883 100.826 364.258 102.482C363.633 104.107 363.055 105.794 362.524 107.544C362.024 109.294 361.586 110.919 361.211 112.419C360.867 113.919 360.602 115.201 360.414 116.263C360.227 117.326 360.133 117.966 360.133 118.185C360.133 118.435 360.149 118.669 360.18 118.888C360.242 119.076 360.399 119.169 360.649 119.169ZM385.117 125.31C384.774 125.373 384.399 125.419 383.992 125.451C383.274 125.544 382.336 125.591 381.18 125.591C380.649 125.591 380.086 125.56 379.492 125.498C378.899 125.466 378.305 125.404 377.711 125.31L377.43 124.841C377.586 124.529 377.867 123.888 378.274 122.919C378.649 121.951 379.102 120.779 379.633 119.404C380.133 118.029 380.68 116.498 381.274 114.81C381.867 113.123 382.477 111.404 383.102 109.654C383.695 107.904 384.274 106.185 384.836 104.498C385.367 102.81 385.852 101.263 386.289 99.8569C386.727 98.4507 387.07 97.2632 387.32 96.2944C387.57 95.2944 387.695 94.6226 387.695 94.2788C387.695 93.9351 387.664 93.6694 387.602 93.4819C387.539 93.2944 387.477 93.1226 387.414 92.9663C387.32 92.8413 387.227 92.7163 387.133 92.5913V91.8882C387.852 91.4507 388.68 91.0601 389.617 90.7163C390.586 90.3726 391.524 90.0913 392.43 89.8726C393.461 89.6226 394.539 89.4038 395.664 89.2163L395.899 89.4976C395.899 89.7788 395.82 90.2163 395.664 90.8101C395.539 91.4038 395.367 92.0757 395.149 92.8257C394.93 93.5444 394.695 94.2944 394.445 95.0757C394.195 95.8569 393.945 96.5913 393.695 97.2788C393.477 97.9663 393.274 98.5601 393.086 99.0601C392.93 99.5601 392.836 99.8882 392.805 100.044C392.117 101.888 391.445 103.826 390.789 105.857C390.133 107.888 389.492 109.919 388.867 111.951C389.586 110.169 390.336 108.373 391.117 106.56C391.93 104.716 392.742 102.951 393.555 101.263C394.367 99.5444 395.195 97.9351 396.039 96.4351C396.914 94.9038 397.758 93.5913 398.57 92.4976C399.383 91.3726 400.18 90.4819 400.961 89.8257C401.774 89.1694 402.539 88.8413 403.258 88.8413C403.477 88.8413 403.805 88.9351 404.242 89.1226C404.68 89.2788 405.133 89.5132 405.602 89.8257C406.07 90.1382 406.524 90.5288 406.961 90.9976C407.43 91.4351 407.805 91.9351 408.086 92.4976C408.211 92.6851 408.102 93.2163 407.758 94.0913C407.414 94.9351 406.852 95.9507 406.07 97.1382C405.289 98.2944 404.305 99.5288 403.117 100.841C401.93 102.123 400.539 103.31 398.945 104.404L397.774 103.794C398.274 102.763 398.664 101.888 398.945 101.169C399.258 100.419 399.492 99.7788 399.649 99.2476C399.805 98.6851 399.899 98.2007 399.93 97.7944C399.992 97.3882 400.024 96.9976 400.024 96.6226C400.024 96.1538 399.883 95.9194 399.602 95.9194C399.164 95.9194 398.602 96.3569 397.914 97.2319C397.258 98.0757 396.524 99.2319 395.711 100.701C394.93 102.169 394.086 103.888 393.18 105.857C392.305 107.794 391.399 109.857 390.461 112.044C389.555 114.201 388.633 116.419 387.695 118.701C386.789 120.982 385.93 123.185 385.117 125.31ZM235.211 236.154C235.867 235.841 236.774 235.404 237.93 234.841C239.055 234.248 240.274 233.357 241.586 232.169C242.899 230.982 244.227 229.404 245.57 227.435C246.914 225.435 248.133 222.873 249.227 219.748C249.508 218.904 249.93 217.701 250.492 216.138C251.055 214.544 251.695 212.716 252.414 210.654C253.133 208.591 253.899 206.373 254.711 203.998C255.555 201.591 256.383 199.169 257.195 196.732L247.305 196.826L248.055 194.529L257.945 194.341C258.727 192.06 259.461 189.857 260.149 187.732C260.867 185.576 261.492 183.623 262.024 181.873C262.555 180.123 262.992 178.623 263.336 177.373C263.711 176.091 263.93 175.185 263.992 174.654C263.992 174.404 263.899 174.091 263.711 173.716C263.555 173.341 263.399 173.107 263.242 173.013C261.711 173.107 260.274 173.248 258.93 173.435C257.617 173.623 256.336 173.935 255.086 174.373C254.68 174.529 254.242 174.794 253.774 175.169C253.305 175.513 252.867 175.951 252.461 176.482C252.055 177.013 251.711 177.607 251.43 178.263C251.18 178.888 251.055 179.529 251.055 180.185C251.055 180.591 251.086 181.107 251.149 181.732C251.211 182.326 251.336 182.935 251.524 183.56L250.961 184.123C249.367 182.966 248.102 181.763 247.164 180.513C246.227 179.232 245.758 178.044 245.758 176.951C245.758 176.326 245.961 175.638 246.367 174.888C246.805 174.138 247.336 173.451 247.961 172.826C248.586 172.169 249.258 171.623 249.977 171.185C250.695 170.748 251.336 170.529 251.899 170.529C253.805 170.529 255.758 170.607 257.758 170.763C259.789 170.919 262.102 170.998 264.695 170.998C265.258 170.998 265.899 170.998 266.617 170.998C267.367 170.966 268.117 170.935 268.867 170.904C269.649 170.841 270.399 170.794 271.117 170.763C271.836 170.732 272.477 170.685 273.039 170.623L273.32 171.935C273.008 172.748 272.586 173.904 272.055 175.404C271.555 176.873 270.977 178.591 270.32 180.56C269.664 182.498 268.945 184.623 268.164 186.935C267.414 189.248 266.633 191.638 265.82 194.107L271.305 194.013L270.461 196.544L265.07 196.638L257.008 221.107C256.227 223.388 255.211 225.373 253.961 227.06C252.742 228.716 251.399 230.138 249.93 231.326C248.492 232.482 247.008 233.435 245.477 234.185C243.945 234.935 242.508 235.529 241.164 235.966C239.852 236.435 238.695 236.763 237.695 236.951C236.695 237.169 235.992 237.326 235.586 237.419L235.211 236.154ZM268.024 210.935C268.774 209.123 269.695 207.498 270.789 206.06C271.883 204.591 273.086 203.357 274.399 202.357C275.711 201.326 277.102 200.544 278.57 200.013C280.039 199.482 281.524 199.216 283.024 199.216C283.68 199.216 284.399 199.404 285.18 199.779C285.992 200.123 286.742 200.607 287.43 201.232C288.117 201.857 288.68 202.623 289.117 203.529C289.586 204.404 289.82 205.373 289.82 206.435C289.82 207.341 289.711 208.388 289.492 209.576C289.274 210.732 288.992 211.935 288.649 213.185C288.305 214.404 287.93 215.623 287.524 216.841C287.117 218.06 286.727 219.185 286.352 220.216C285.977 221.216 285.633 222.076 285.32 222.794C285.039 223.513 284.836 223.998 284.711 224.248C283.961 226.091 283.039 227.732 281.945 229.169C280.852 230.607 279.649 231.841 278.336 232.873C277.024 233.873 275.633 234.638 274.164 235.169C272.727 235.701 271.258 235.966 269.758 235.966C269.102 235.966 268.383 235.794 267.602 235.451C266.789 235.107 266.039 234.623 265.352 233.998C264.664 233.341 264.102 232.576 263.664 231.701C263.195 230.826 262.961 229.857 262.961 228.794C262.961 227.857 263.07 226.81 263.289 225.654C263.508 224.466 263.789 223.263 264.133 222.044C264.477 220.794 264.852 219.56 265.258 218.341C265.664 217.123 266.055 216.013 266.43 215.013C266.805 214.013 267.133 213.154 267.414 212.435C267.695 211.685 267.899 211.185 268.024 210.935ZM281.008 201.794C280.289 201.794 279.508 202.435 278.664 203.716C277.852 204.966 277.024 206.576 276.18 208.544C275.367 210.513 274.57 212.669 273.789 215.013C273.039 217.326 272.367 219.56 271.774 221.716C271.211 223.873 270.742 225.779 270.367 227.435C270.024 229.06 269.852 230.154 269.852 230.716C269.852 231.623 270.024 232.279 270.367 232.685C270.711 233.091 271.18 233.294 271.774 233.294C272.305 233.294 272.867 232.935 273.461 232.216C274.055 231.466 274.664 230.482 275.289 229.263C275.914 228.044 276.524 226.638 277.117 225.044C277.742 223.451 278.336 221.81 278.899 220.123C279.461 218.404 279.977 216.701 280.445 215.013C280.945 213.326 281.367 211.763 281.711 210.326C282.086 208.888 282.367 207.654 282.555 206.623C282.774 205.56 282.883 204.826 282.883 204.419C282.883 203.513 282.711 202.857 282.367 202.451C282.024 202.013 281.57 201.794 281.008 201.794ZM294.086 210.935C294.836 209.123 295.758 207.498 296.852 206.06C297.945 204.591 299.149 203.357 300.461 202.357C301.774 201.326 303.164 200.544 304.633 200.013C306.102 199.482 307.586 199.216 309.086 199.216C309.742 199.216 310.461 199.404 311.242 199.779C312.055 200.123 312.805 200.607 313.492 201.232C314.18 201.857 314.742 202.623 315.18 203.529C315.649 204.404 315.883 205.373 315.883 206.435C315.883 207.341 315.774 208.388 315.555 209.576C315.336 210.732 315.055 211.935 314.711 213.185C314.367 214.404 313.992 215.623 313.586 216.841C313.18 218.06 312.789 219.185 312.414 220.216C312.039 221.216 311.695 222.076 311.383 222.794C311.102 223.513 310.899 223.998 310.774 224.248C310.024 226.091 309.102 227.732 308.008 229.169C306.914 230.607 305.711 231.841 304.399 232.873C303.086 233.873 301.695 234.638 300.227 235.169C298.789 235.701 297.32 235.966 295.82 235.966C295.164 235.966 294.445 235.794 293.664 235.451C292.852 235.107 292.102 234.623 291.414 233.998C290.727 233.341 290.164 232.576 289.727 231.701C289.258 230.826 289.024 229.857 289.024 228.794C289.024 227.857 289.133 226.81 289.352 225.654C289.57 224.466 289.852 223.263 290.195 222.044C290.539 220.794 290.914 219.56 291.32 218.341C291.727 217.123 292.117 216.013 292.492 215.013C292.867 214.013 293.195 213.154 293.477 212.435C293.758 211.685 293.961 211.185 294.086 210.935ZM307.07 201.794C306.352 201.794 305.57 202.435 304.727 203.716C303.914 204.966 303.086 206.576 302.242 208.544C301.43 210.513 300.633 212.669 299.852 215.013C299.102 217.326 298.43 219.56 297.836 221.716C297.274 223.873 296.805 225.779 296.43 227.435C296.086 229.06 295.914 230.154 295.914 230.716C295.914 231.623 296.086 232.279 296.43 232.685C296.774 233.091 297.242 233.294 297.836 233.294C298.367 233.294 298.93 232.935 299.524 232.216C300.117 231.466 300.727 230.482 301.352 229.263C301.977 228.044 302.586 226.638 303.18 225.044C303.805 223.451 304.399 221.81 304.961 220.123C305.524 218.404 306.039 216.701 306.508 215.013C307.008 213.326 307.43 211.763 307.774 210.326C308.149 208.888 308.43 207.654 308.617 206.623C308.836 205.56 308.945 204.826 308.945 204.419C308.945 203.513 308.774 202.857 308.43 202.451C308.086 202.013 307.633 201.794 307.07 201.794ZM344.805 177.232C344.805 176.544 344.617 176.076 344.242 175.826C343.899 175.544 343.461 175.419 342.93 175.451C342.399 175.482 341.82 175.607 341.195 175.826C340.57 176.013 339.992 176.232 339.461 176.482L338.852 175.216C342.07 173.654 344.68 172.56 346.68 171.935C348.711 171.31 350.102 170.998 350.852 170.998C351.07 170.998 351.32 171.091 351.602 171.279C351.914 171.435 352.195 171.669 352.445 171.982C352.695 172.294 352.914 172.654 353.102 173.06C353.289 173.435 353.383 173.826 353.383 174.232C353.383 174.482 353.024 175.529 352.305 177.373C351.586 179.185 350.727 181.576 349.727 184.544C349.133 186.294 348.477 188.216 347.758 190.31C347.039 192.404 346.274 194.591 345.461 196.873C344.68 199.123 343.883 201.419 343.07 203.763C342.289 206.107 341.524 208.388 340.774 210.607C340.024 212.826 339.305 214.951 338.617 216.982C337.961 218.982 337.383 220.779 336.883 222.373C336.414 223.966 336.039 225.326 335.758 226.451C335.477 227.544 335.336 228.294 335.336 228.701C335.336 229.263 335.555 229.544 335.992 229.544C336.336 229.513 336.852 229.341 337.539 229.029C338.227 228.685 339.008 228.185 339.883 227.529C340.789 226.873 341.758 226.076 342.789 225.138C343.852 224.169 344.914 223.044 345.977 221.763L347.008 222.748C345.633 224.404 344.164 226.013 342.602 227.576C341.039 229.107 339.492 230.466 337.961 231.654C336.461 232.841 335.039 233.794 333.695 234.513C332.383 235.232 331.289 235.591 330.414 235.591C329.977 235.591 329.617 235.404 329.336 235.029C329.055 234.623 328.82 234.123 328.633 233.529C328.477 232.935 328.367 232.31 328.305 231.654C328.242 230.998 328.211 230.388 328.211 229.826C328.211 229.576 328.242 229.294 328.305 228.982C328.399 228.638 328.492 228.216 328.586 227.716C327.555 228.81 326.43 229.857 325.211 230.857C324.024 231.826 322.867 232.685 321.742 233.435C320.649 234.154 319.664 234.732 318.789 235.169C317.883 235.576 317.242 235.779 316.867 235.779C316.524 235.779 316.258 235.623 316.07 235.31C315.852 235.029 315.695 234.685 315.602 234.279C315.477 233.841 315.399 233.404 315.367 232.966C315.305 232.498 315.274 232.091 315.274 231.748C315.274 230.654 315.399 229.404 315.649 227.998C315.899 226.591 316.211 225.138 316.586 223.638C316.93 222.138 317.336 220.669 317.805 219.232C318.242 217.763 318.664 216.435 319.07 215.248C319.477 214.029 319.836 213.013 320.149 212.201C320.461 211.357 320.68 210.81 320.805 210.56C321.367 209.341 322.227 208.123 323.383 206.904C324.539 205.685 325.899 204.498 327.461 203.341C329.024 202.185 330.727 201.091 332.57 200.06C334.445 198.998 336.352 198.044 338.289 197.201C339.164 194.638 339.992 192.216 340.774 189.935C341.586 187.623 342.289 185.576 342.883 183.794C343.477 182.013 343.945 180.544 344.289 179.388C344.633 178.232 344.805 177.513 344.805 177.232ZM329.102 224.669C329.664 222.919 330.274 221.044 330.93 219.044C331.586 217.013 332.258 214.935 332.945 212.81C333.664 210.685 334.399 208.529 335.149 206.341C335.899 204.154 336.633 201.998 337.352 199.873C336.477 200.123 335.602 200.482 334.727 200.951C333.883 201.388 333.211 201.794 332.711 202.169C331.899 202.794 331.07 203.857 330.227 205.357C329.414 206.826 328.633 208.498 327.883 210.373C327.133 212.216 326.43 214.138 325.774 216.138C325.149 218.138 324.602 220.013 324.133 221.763C323.664 223.482 323.289 224.951 323.008 226.169C322.758 227.357 322.633 228.06 322.633 228.279C322.633 228.529 322.649 228.763 322.68 228.982C322.742 229.169 322.899 229.263 323.149 229.263C323.399 229.263 323.758 229.138 324.227 228.888C324.695 228.638 325.195 228.31 325.727 227.904C326.289 227.466 326.867 226.966 327.461 226.404C328.055 225.841 328.602 225.263 329.102 224.669Z" fill="white"/>
<path d="M141.193 73.7259C134.638 81.6422 130.031 90.8322 127.705 100.631C123.524 101.98 118.769 103.825 113.654 105.158C101.342 108.309 94.5204 114.544 91.4064 122.051C96.8551 89.8159 129.102 67.673 140.104 73.164C140.483 73.3555 140.836 73.5505 141.193 73.7259Z" fill="#E0AC7E"/>
<path d="M101.95 166.21C109.019 175.107 117.292 183.093 126.56 189.967C117.655 184.513 109.988 177.446 104.006 169.177C103.292 168.19 102.596 167.194 101.95 166.21Z" fill="#E0AC7E"/>
<path d="M155.552 200.958C157.78 200.314 159.69 198.94 160.936 197.083C165.538 190.499 171.593 185.148 176.248 180.319C176.657 179.896 177.042 179.489 177.419 179.076C181.884 180.681 186.48 181.941 191.161 182.843C198.614 184.245 206.219 184.802 213.812 184.5C214.084 184.693 214.291 184.952 214.516 185.19C222.816 193.851 190.254 207.548 155.552 200.958Z" fill="#E0AC7E"/>
<path d="M140.091 99.831C142.45 101.205 144.022 104.229 144.6 109.827C145.419 117.806 174.246 156.986 176.512 158.595C182.553 162.885 184.076 166.71 182.991 170.57C179.91 169.018 177.548 167.174 176.442 164.693C172.108 155.01 151.517 136.238 142.082 117.255C139.414 111.809 138.714 105.688 140.091 99.831Z" fill="#C18C68"/>
<path d="M101.95 166.21L101.179 165.206C92.4374 153.543 85.8008 135.665 91.407 122.051C89.1374 135.446 91.5103 150.586 101.95 166.21Z" fill="#D19C74"/>
<path d="M155.552 200.958C148.239 203.04 137.218 197.825 126.567 189.972C135.408 195.322 145.242 199.049 155.552 200.958Z" fill="#D19C74"/>
<path d="M213.812 184.5C206.219 184.802 198.614 184.245 191.161 182.843C186.473 181.951 181.87 180.701 177.397 179.105C180.135 176.14 182.233 173.368 183.004 170.613C187.292 172.787 192.978 174.426 198.528 176.37C204.078 178.314 209.833 180.726 213.812 184.5Z" fill="#D69F76"/>
<path d="M137.569 148.068C144.642 156.968 152.921 164.958 162.194 171.835C153.287 166.377 145.621 159.306 139.638 151.033C138.924 150.046 138.23 149.062 137.569 148.068Z" fill="#D19C74"/>
<path d="M177.414 179.084C172.083 177.189 166.983 174.76 162.201 171.841C152.926 164.963 144.645 156.971 137.569 148.068C127.137 132.449 124.772 117.314 127.041 103.92C127.222 102.821 127.438 101.736 127.683 100.66L128.907 100.269C133.499 98.8653 137.334 98.2301 140.091 99.831C138.714 105.688 139.414 111.809 142.082 117.255C151.515 136.226 172.101 155.005 176.45 164.698C177.556 167.18 179.917 169.024 182.998 170.575C182.25 173.347 180.14 176.133 177.414 179.084Z" fill="#C18C68"/>
<path d="M137.569 148.068L136.803 147.056C128.07 135.399 121.427 117.528 127.041 103.92C124.771 117.314 127.137 132.449 137.569 148.068Z" fill="#D19C74"/>
<path d="M176.242 180.327C171.587 185.155 165.532 190.506 160.93 197.09C159.685 198.943 157.777 200.315 155.552 200.958C145.239 199.049 135.402 195.319 126.56 189.967C117.289 183.092 109.013 175.104 101.942 166.205C91.5102 150.586 89.1373 135.446 91.4069 122.051C94.5209 114.544 101.342 108.309 113.648 105.165C118.746 103.854 123.502 102.009 127.7 100.639C127.455 101.714 127.239 102.799 127.058 103.898C124.772 117.314 127.137 132.449 137.569 148.068C144.643 156.968 152.921 164.959 162.194 171.835C166.975 174.755 172.075 177.183 177.406 179.078C177.031 179.503 176.652 179.903 176.242 180.327Z" fill="#D19C74"/>
<path d="M140.091 99.8308C137.333 98.23 133.498 98.8651 128.907 100.268L127.682 100.66C130.011 90.8486 134.626 81.6484 141.194 73.7256C146.931 77.2415 145.621 82.4477 143.427 88.9227C142.07 92.4882 140.956 96.1317 140.091 99.8308Z" fill="#D69F76"/>
<path d="M112.782 127.969C113.274 126.599 105.324 129.892 102.661 134.17C99.9971 138.449 97.5181 141.43 99.0327 141.535C99.7493 141.586 101.654 137.65 104.708 134.586C108.06 131.209 112.523 128.677 112.782 127.969Z" fill="#C98F67"/>
<path d="M119.946 146.623C120.445 145.259 112.489 148.546 109.832 152.83C107.176 157.113 104.69 160.089 106.191 160.196C106.915 160.253 108.82 156.317 111.872 153.24C115.218 149.87 119.689 147.344 119.946 146.623Z" fill="#C98F67"/>
<path d="M140.147 168.208C140.639 166.839 132.644 170.099 130.026 174.409C127.407 178.72 124.883 181.669 126.392 181.781C127.114 181.825 129.013 177.896 132.073 174.825C135.44 171.459 139.853 168.902 140.147 168.208Z" fill="#C98F67"/>
</svg>
